<mxfile host="app.diagrams.net" modified="2024-06-18T14:25:28.027Z" agent="Mozilla/5.0 (Windows NT 10.0; Win64; x64) AppleWebKit/537.36 (KHTML, like Gecko) Chrome/126.0.0.0 Safari/537.36" etag="rXK9K2lLwR1o1Zm50Rms" version="24.5.4" type="github" pages="2">
  <diagram name="Speech" id="vcsxD4Wo8bOV1PizezcE">
    <mxGraphModel dx="1969" dy="868" grid="1" gridSize="10" guides="1" tooltips="1" connect="1" arrows="1" fold="1" page="1" pageScale="1" pageWidth="827" pageHeight="1169" math="0" shadow="0">
      <root>
        <mxCell id="0" />
        <mxCell id="1" parent="0" />
        <mxCell id="4lSVvGIZfWu8K5KHJqeH-16" style="edgeStyle=orthogonalEdgeStyle;rounded=0;orthogonalLoop=1;jettySize=auto;html=1;exitX=0.5;exitY=1;exitDx=0;exitDy=0;entryX=0.5;entryY=0;entryDx=0;entryDy=0;" edge="1" parent="1" source="4lSVvGIZfWu8K5KHJqeH-3" target="4lSVvGIZfWu8K5KHJqeH-14">
          <mxGeometry relative="1" as="geometry" />
        </mxCell>
        <mxCell id="4lSVvGIZfWu8K5KHJqeH-3" value="音声合成" style="shape=process;whiteSpace=wrap;html=1;backgroundOutline=1;" vertex="1" parent="1">
          <mxGeometry x="354" y="240" width="120" height="60" as="geometry" />
        </mxCell>
        <mxCell id="4lSVvGIZfWu8K5KHJqeH-5" style="edgeStyle=orthogonalEdgeStyle;rounded=0;orthogonalLoop=1;jettySize=auto;html=1;entryX=0.5;entryY=0;entryDx=0;entryDy=0;" edge="1" parent="1" source="4lSVvGIZfWu8K5KHJqeH-4" target="4lSVvGIZfWu8K5KHJqeH-3">
          <mxGeometry relative="1" as="geometry" />
        </mxCell>
        <mxCell id="4lSVvGIZfWu8K5KHJqeH-4" value="発話内容" style="rounded=1;whiteSpace=wrap;html=1;" vertex="1" parent="1">
          <mxGeometry x="354" y="140" width="120" height="50" as="geometry" />
        </mxCell>
        <mxCell id="4lSVvGIZfWu8K5KHJqeH-36" style="edgeStyle=orthogonalEdgeStyle;rounded=0;orthogonalLoop=1;jettySize=auto;html=1;entryX=1;entryY=0.5;entryDx=0;entryDy=0;" edge="1" parent="1" source="4lSVvGIZfWu8K5KHJqeH-6" target="4lSVvGIZfWu8K5KHJqeH-19">
          <mxGeometry relative="1" as="geometry">
            <Array as="points">
              <mxPoint x="570" y="470" />
            </Array>
          </mxGeometry>
        </mxCell>
        <mxCell id="4lSVvGIZfWu8K5KHJqeH-6" value="ChatPrompt" style="rounded=1;whiteSpace=wrap;html=1;" vertex="1" parent="1">
          <mxGeometry x="510" y="340" width="120" height="60" as="geometry" />
        </mxCell>
        <mxCell id="4lSVvGIZfWu8K5KHJqeH-7" value="対話履歴" style="shape=cylinder3;whiteSpace=wrap;html=1;boundedLbl=1;backgroundOutline=1;size=15;" vertex="1" parent="1">
          <mxGeometry x="530" y="125" width="60" height="80" as="geometry" />
        </mxCell>
        <mxCell id="4lSVvGIZfWu8K5KHJqeH-9" style="edgeStyle=orthogonalEdgeStyle;rounded=0;orthogonalLoop=1;jettySize=auto;html=1;exitX=1;exitY=0.5;exitDx=0;exitDy=0;entryX=0;entryY=0.5;entryDx=0;entryDy=0;entryPerimeter=0;" edge="1" parent="1" source="4lSVvGIZfWu8K5KHJqeH-4" target="4lSVvGIZfWu8K5KHJqeH-7">
          <mxGeometry relative="1" as="geometry" />
        </mxCell>
        <mxCell id="4lSVvGIZfWu8K5KHJqeH-34" style="edgeStyle=orthogonalEdgeStyle;rounded=0;orthogonalLoop=1;jettySize=auto;html=1;exitX=0.5;exitY=1;exitDx=0;exitDy=0;exitPerimeter=0;entryX=1;entryY=0.5;entryDx=0;entryDy=0;" edge="1" parent="1" source="4lSVvGIZfWu8K5KHJqeH-11" target="4lSVvGIZfWu8K5KHJqeH-19">
          <mxGeometry relative="1" as="geometry" />
        </mxCell>
        <mxCell id="4lSVvGIZfWu8K5KHJqeH-11" value="対話履歴" style="shape=cylinder3;whiteSpace=wrap;html=1;boundedLbl=1;backgroundOutline=1;size=15;" vertex="1" parent="1">
          <mxGeometry x="810" y="330" width="60" height="80" as="geometry" />
        </mxCell>
        <mxCell id="4lSVvGIZfWu8K5KHJqeH-20" style="edgeStyle=orthogonalEdgeStyle;rounded=0;orthogonalLoop=1;jettySize=auto;html=1;exitX=0.5;exitY=1;exitDx=0;exitDy=0;entryX=0.5;entryY=0;entryDx=0;entryDy=0;" edge="1" parent="1" source="4lSVvGIZfWu8K5KHJqeH-14" target="4lSVvGIZfWu8K5KHJqeH-19">
          <mxGeometry relative="1" as="geometry" />
        </mxCell>
        <mxCell id="4lSVvGIZfWu8K5KHJqeH-14" value="音声認識" style="shape=process;whiteSpace=wrap;html=1;backgroundOutline=1;" vertex="1" parent="1">
          <mxGeometry x="354" y="340" width="120" height="60" as="geometry" />
        </mxCell>
        <mxCell id="4lSVvGIZfWu8K5KHJqeH-38" style="edgeStyle=orthogonalEdgeStyle;rounded=0;orthogonalLoop=1;jettySize=auto;html=1;entryX=0.5;entryY=0;entryDx=0;entryDy=0;" edge="1" parent="1" source="4lSVvGIZfWu8K5KHJqeH-19" target="4lSVvGIZfWu8K5KHJqeH-37">
          <mxGeometry relative="1" as="geometry" />
        </mxCell>
        <mxCell id="4lSVvGIZfWu8K5KHJqeH-19" value="連結" style="rounded=1;whiteSpace=wrap;html=1;" vertex="1" parent="1">
          <mxGeometry x="354" y="440" width="120" height="60" as="geometry" />
        </mxCell>
        <mxCell id="4lSVvGIZfWu8K5KHJqeH-35" style="edgeStyle=orthogonalEdgeStyle;rounded=0;orthogonalLoop=1;jettySize=auto;html=1;exitX=0.5;exitY=1;exitDx=0;exitDy=0;entryX=1;entryY=0.5;entryDx=0;entryDy=0;" edge="1" parent="1" source="4lSVvGIZfWu8K5KHJqeH-25" target="4lSVvGIZfWu8K5KHJqeH-19">
          <mxGeometry relative="1" as="geometry" />
        </mxCell>
        <mxCell id="4lSVvGIZfWu8K5KHJqeH-25" value="personality" style="rounded=1;whiteSpace=wrap;html=1;" vertex="1" parent="1">
          <mxGeometry x="660" y="340" width="120" height="60" as="geometry" />
        </mxCell>
        <mxCell id="4lSVvGIZfWu8K5KHJqeH-42" style="edgeStyle=orthogonalEdgeStyle;rounded=0;orthogonalLoop=1;jettySize=auto;html=1;exitX=0.5;exitY=1;exitDx=0;exitDy=0;entryX=0.5;entryY=0;entryDx=0;entryDy=0;" edge="1" parent="1" source="4lSVvGIZfWu8K5KHJqeH-37" target="4lSVvGIZfWu8K5KHJqeH-41">
          <mxGeometry relative="1" as="geometry" />
        </mxCell>
        <mxCell id="4lSVvGIZfWu8K5KHJqeH-37" value="LLM" style="rounded=1;whiteSpace=wrap;html=1;" vertex="1" parent="1">
          <mxGeometry x="354" y="540" width="120" height="60" as="geometry" />
        </mxCell>
        <mxCell id="4lSVvGIZfWu8K5KHJqeH-45" style="edgeStyle=orthogonalEdgeStyle;rounded=0;orthogonalLoop=1;jettySize=auto;html=1;entryX=0.5;entryY=0;entryDx=0;entryDy=0;" edge="1" parent="1" source="4lSVvGIZfWu8K5KHJqeH-41" target="4lSVvGIZfWu8K5KHJqeH-44">
          <mxGeometry relative="1" as="geometry" />
        </mxCell>
        <mxCell id="4lSVvGIZfWu8K5KHJqeH-46" style="edgeStyle=orthogonalEdgeStyle;rounded=0;orthogonalLoop=1;jettySize=auto;html=1;entryX=0;entryY=0.5;entryDx=0;entryDy=0;" edge="1" parent="1" source="4lSVvGIZfWu8K5KHJqeH-41" target="4lSVvGIZfWu8K5KHJqeH-4">
          <mxGeometry relative="1" as="geometry">
            <Array as="points">
              <mxPoint x="200" y="670" />
              <mxPoint x="200" y="165" />
            </Array>
          </mxGeometry>
        </mxCell>
        <mxCell id="4lSVvGIZfWu8K5KHJqeH-41" value="FunctionCalling" style="rounded=1;whiteSpace=wrap;html=1;" vertex="1" parent="1">
          <mxGeometry x="354" y="640" width="120" height="60" as="geometry" />
        </mxCell>
        <mxCell id="4lSVvGIZfWu8K5KHJqeH-44" value="待機モード移行" style="rounded=1;whiteSpace=wrap;html=1;" vertex="1" parent="1">
          <mxGeometry x="354" y="740" width="120" height="60" as="geometry" />
        </mxCell>
      </root>
    </mxGraphModel>
  </diagram>
  <diagram id="mJ9vhJXOhWO08Z__Yc-X" name="ページ2">
    <mxGraphModel dx="1434" dy="708" grid="1" gridSize="10" guides="1" tooltips="1" connect="1" arrows="1" fold="1" page="1" pageScale="1" pageWidth="827" pageHeight="1169" math="0" shadow="0">
      <root>
        <mxCell id="0" />
        <mxCell id="1" parent="0" />
        <mxCell id="qmHcqvEJqrWSR2z9JQs2-3" style="edgeStyle=orthogonalEdgeStyle;rounded=0;orthogonalLoop=1;jettySize=auto;html=1;entryX=1;entryY=0.5;entryDx=0;entryDy=0;" edge="1" parent="1" source="qmHcqvEJqrWSR2z9JQs2-1" target="qmHcqvEJqrWSR2z9JQs2-2">
          <mxGeometry relative="1" as="geometry" />
        </mxCell>
        <mxCell id="qmHcqvEJqrWSR2z9JQs2-1" value="recall" style="shape=cylinder3;whiteSpace=wrap;html=1;boundedLbl=1;backgroundOutline=1;size=15;" vertex="1" parent="1">
          <mxGeometry x="540" y="480" width="60" height="80" as="geometry" />
        </mxCell>
        <mxCell id="qmHcqvEJqrWSR2z9JQs2-4" style="edgeStyle=orthogonalEdgeStyle;rounded=0;orthogonalLoop=1;jettySize=auto;html=1;entryX=0.5;entryY=0;entryDx=0;entryDy=0;" edge="1" parent="1" source="qmHcqvEJqrWSR2z9JQs2-2" target="qmHcqvEJqrWSR2z9JQs2-5">
          <mxGeometry relative="1" as="geometry">
            <mxPoint x="414" y="600" as="targetPoint" />
          </mxGeometry>
        </mxCell>
        <mxCell id="qmHcqvEJqrWSR2z9JQs2-2" value="最新100件取得" style="rounded=1;whiteSpace=wrap;html=1;" vertex="1" parent="1">
          <mxGeometry x="354" y="490" width="120" height="60" as="geometry" />
        </mxCell>
        <mxCell id="qmHcqvEJqrWSR2z9JQs2-7" style="edgeStyle=orthogonalEdgeStyle;rounded=0;orthogonalLoop=1;jettySize=auto;html=1;entryX=0.5;entryY=0;entryDx=0;entryDy=0;" edge="1" parent="1" source="qmHcqvEJqrWSR2z9JQs2-5" target="qmHcqvEJqrWSR2z9JQs2-6">
          <mxGeometry relative="1" as="geometry" />
        </mxCell>
        <mxCell id="qmHcqvEJqrWSR2z9JQs2-5" value="整形" style="rounded=1;whiteSpace=wrap;html=1;" vertex="1" parent="1">
          <mxGeometry x="354" y="600" width="120" height="60" as="geometry" />
        </mxCell>
        <mxCell id="qmHcqvEJqrWSR2z9JQs2-6" value="LLMでquery生成" style="rounded=1;whiteSpace=wrap;html=1;" vertex="1" parent="1">
          <mxGeometry x="354" y="710" width="120" height="60" as="geometry" />
        </mxCell>
        <mxCell id="qmHcqvEJqrWSR2z9JQs2-8" value="for r in recall()" style="rounded=1;whiteSpace=wrap;html=1;" vertex="1" parent="1">
          <mxGeometry x="354" y="930" width="120" height="60" as="geometry" />
        </mxCell>
        <mxCell id="qmHcqvEJqrWSR2z9JQs2-11" style="edgeStyle=orthogonalEdgeStyle;rounded=0;orthogonalLoop=1;jettySize=auto;html=1;entryX=1;entryY=0.5;entryDx=0;entryDy=0;" edge="1" parent="1" source="qmHcqvEJqrWSR2z9JQs2-10" target="qmHcqvEJqrWSR2z9JQs2-8">
          <mxGeometry relative="1" as="geometry" />
        </mxCell>
        <mxCell id="qmHcqvEJqrWSR2z9JQs2-10" value="recall" style="shape=cylinder3;whiteSpace=wrap;html=1;boundedLbl=1;backgroundOutline=1;size=15;" vertex="1" parent="1">
          <mxGeometry x="540" y="920" width="60" height="80" as="geometry" />
        </mxCell>
        <mxCell id="qmHcqvEJqrWSR2z9JQs2-12" value="for n in [1,2,3]" style="rounded=1;whiteSpace=wrap;html=1;" vertex="1" parent="1">
          <mxGeometry x="354" y="820" width="120" height="60" as="geometry" />
        </mxCell>
      </root>
    </mxGraphModel>
  </diagram>
</mxfile>
